<svg xmlns="http://www.w3.org/2000/svg" xmlns:xlink="http://www.w3.org/1999/xlink" id="visual" version="1.1" viewBox="0 179 960 362"><path d="M0 203L53.3 198C106.7 193 213.3 183 320 180C426.7 177 533.3 181 640 189C746.7 197 853.3 209 906.7 215L960 221L960 541L906.7 541C853.3 541 746.7 541 640 541C533.3 541 426.7 541 320 541C213.3 541 106.7 541 53.3 541L0 541Z" fill="#1bb2f8"/><path d="M0 257L53.3 250.8C106.7 244.7 213.3 232.3 320 230.7C426.7 229 533.3 238 640 236.5C746.7 235 853.3 223 906.7 217L960 211L960 541L906.7 541C853.3 541 746.7 541 640 541C533.3 541 426.7 541 320 541C213.3 541 106.7 541 53.3 541L0 541Z" fill="#11abf4"/><path d="M0 263L53.3 266.7C106.7 270.3 213.3 277.7 320 281.5C426.7 285.3 533.3 285.7 640 278.7C746.7 271.7 853.3 257.3 906.7 250.2L960 243L960 541L906.7 541C853.3 541 746.7 541 640 541C533.3 541 426.7 541 320 541C213.3 541 106.7 541 53.3 541L0 541Z" fill="#07a4f0"/><path d="M0 327L53.3 321.3C106.7 315.7 213.3 304.3 320 301.3C426.7 298.3 533.3 303.7 640 308.5C746.7 313.3 853.3 317.7 906.7 319.8L960 322L960 541L906.7 541C853.3 541 746.7 541 640 541C533.3 541 426.7 541 320 541C213.3 541 106.7 541 53.3 541L0 541Z" fill="#019dec"/><path d="M0 350L53.3 349.2C106.7 348.3 213.3 346.7 320 344.2C426.7 341.7 533.3 338.3 640 338.7C746.7 339 853.3 343 906.7 345L960 347L960 541L906.7 541C853.3 541 746.7 541 640 541C533.3 541 426.7 541 320 541C213.3 541 106.7 541 53.3 541L0 541Z" fill="#0095e8"/><path d="M0 384L53.3 385.2C106.7 386.3 213.3 388.7 320 388.2C426.7 387.7 533.3 384.3 640 384C746.7 383.7 853.3 386.3 906.7 387.7L960 389L960 541L906.7 541C853.3 541 746.7 541 640 541C533.3 541 426.7 541 320 541C213.3 541 106.7 541 53.3 541L0 541Z" fill="#068ee4"/><path d="M0 422L53.3 426.5C106.7 431 213.3 440 320 440C426.7 440 533.3 431 640 431.5C746.7 432 853.3 442 906.7 447L960 452L960 541L906.7 541C853.3 541 746.7 541 640 541C533.3 541 426.7 541 320 541C213.3 541 106.7 541 53.3 541L0 541Z" fill="#0f86df"/><path d="M0 485L53.3 485.5C106.7 486 213.3 487 320 485.8C426.7 484.7 533.3 481.3 640 478.2C746.7 475 853.3 472 906.7 470.5L960 469L960 541L906.7 541C853.3 541 746.7 541 640 541C533.3 541 426.7 541 320 541C213.3 541 106.7 541 53.3 541L0 541Z" fill="#187fda"/></svg>